<svg width="47" height="46" viewBox="0 0 47 46" fill="none" xmlns="http://www.w3.org/2000/svg">
<path d="M23.5189 38.1511C24.5563 38.1511 25.3972 37.3102 25.3972 36.2728C25.3972 35.2355 24.5563 34.3945 23.5189 34.3945C22.4816 34.3945 21.6406 35.2355 21.6406 36.2728C21.6406 37.3102 22.4816 38.1511 23.5189 38.1511Z" fill="#36454F"/>
<path d="M32.3885 4.58008H14.6387C13.4603 4.65086 12.3574 5.18374 11.5696 6.06296C10.7818 6.94218 10.3728 8.09672 10.4313 9.27579V37.2059C10.3728 38.385 10.7818 39.5395 11.5696 40.4187C12.3574 41.298 13.4603 41.8308 14.6387 41.9016H32.3885C33.5679 41.8337 34.6726 41.3017 35.4609 40.4218C36.2493 39.5419 36.6573 38.3857 36.5958 37.2059V9.27579C36.6573 8.09598 36.2493 6.93978 35.4609 6.05989C34.6726 5.18 33.5679 4.64797 32.3885 4.58008ZM34.7175 37.2059C34.7783 37.8875 34.5679 38.5657 34.1318 39.0931C33.6958 39.6206 33.0694 39.9548 32.3885 40.0233H14.6387C13.9589 39.952 13.3342 39.617 12.8988 39.0902C12.4633 38.5635 12.2518 37.8869 12.3096 37.2059V32.5102H34.7175V37.2059ZM34.7175 30.6319H12.3096V9.27579C12.2518 8.59477 12.4633 7.91824 12.8988 7.39146C13.3342 6.86468 13.9589 6.52967 14.6387 6.45836H32.3885C33.0694 6.52686 33.6958 6.8611 34.1318 7.38856C34.5679 7.91602 34.7783 8.59415 34.7175 9.27579V30.6319Z" fill="#36454F"/>
</svg>
