<svg width="41" height="41" viewBox="0 0 41 41" fill="none" xmlns="http://www.w3.org/2000/svg">
<path d="M25.7043 22.395L15.7634 14.0133M15.7634 22.395L15.7634 22.3824M25.7043 14.0259L25.7043 14.0133M5.24604 12.3817L6.38923 11.6567C7.39491 11.021 7.31373 9.66879 6.24012 9.13236C4.72911 8.37801 5.33053 6.33008 7.06189 6.33008L34.4058 6.33008C36.1372 6.33008 36.7386 8.37801 35.2292 9.13236C34.154 9.66879 34.0728 11.021 35.0785 11.6567L36.2217 12.3817C37.6631 13.2939 37.6631 15.1993 36.2217 16.1115L36.0411 16.2247C34.5135 17.1928 34.5135 19.2142 36.0411 20.1836L36.2217 20.2968C37.6631 21.209 37.6631 23.1144 36.2217 24.0267L35.0785 24.7517C34.0728 25.3873 34.154 26.7395 35.2276 27.276C36.7369 28.0303 36.1372 30.0782 34.4058 30.0782L7.06189 30.0782C5.33053 30.0782 4.72911 28.0303 6.23846 27.276C7.31373 26.7395 7.39491 25.3873 6.38923 24.7517L5.24604 24.028C3.80461 23.1144 3.80461 21.209 5.24604 20.2982L5.42663 20.1836C6.9542 19.2156 6.9542 17.1942 5.42663 16.2247L5.24604 16.1115C3.80462 15.1993 3.80462 13.2939 5.24604 12.3817Z" stroke="#36454F" stroke-width="2.06779" stroke-linecap="round" stroke-linejoin="round"/>
</svg>
