<svg width="45" height="44" viewBox="0 0 45 44" fill="none" xmlns="http://www.w3.org/2000/svg">
<path d="M30.173 6.94165H14.8893C12.5049 6.94165 10.2182 7.88885 8.53215 9.57487C6.84612 11.2609 5.89893 13.5476 5.89893 15.932V28.5186C5.89893 29.6992 6.13147 30.8683 6.58328 31.959C7.03509 33.0498 7.69731 34.0409 8.53215 34.8757C10.2182 36.5618 12.5049 37.509 14.8893 37.509H30.173C31.3536 37.509 32.5227 37.2764 33.6134 36.8246C34.7042 36.3728 35.6953 35.7106 36.5301 34.8757C37.365 34.0409 38.0272 33.0498 38.479 31.959C38.9308 30.8683 39.1634 29.6992 39.1634 28.5186V15.932C39.1634 14.7514 38.9308 13.5823 38.479 12.4916C38.0272 11.4008 37.365 10.4097 36.5301 9.57487C35.6953 8.74004 34.7042 8.07781 33.6134 7.626C32.5227 7.17419 31.3536 6.94165 30.173 6.94165Z" stroke="#36454F" stroke-width="1.79808" stroke-linecap="round" stroke-linejoin="round"/>
<path d="M6.34802 31.2154L11.2927 25.4616C11.9398 24.819 12.7889 24.4197 13.6965 24.3312C14.6042 24.2427 15.5145 24.4705 16.2734 24.9761C17.0323 25.4817 17.9427 25.7095 18.8503 25.6211C19.7579 25.5326 20.6071 25.1333 21.2541 24.4906L25.4436 20.3011C26.6474 19.0932 28.2412 18.3524 29.9407 18.2108C31.6401 18.0691 33.3346 18.536 34.7217 19.5279L39.1989 22.9982M15.3384 18.9346C15.7304 18.9346 16.1185 18.8574 16.4806 18.7074C16.8428 18.5574 17.1718 18.3375 17.449 18.0604C17.7262 17.7832 17.946 17.4541 18.096 17.092C18.246 16.7299 18.3232 16.3417 18.3232 15.9498C18.3232 15.5578 18.246 15.1697 18.096 14.8075C17.946 14.4454 17.7262 14.1164 17.449 13.8392C17.1718 13.562 16.8428 13.3422 16.4806 13.1922C16.1185 13.0422 15.7304 12.965 15.3384 12.965C14.5468 12.965 13.7876 13.2794 13.2278 13.8392C12.6681 14.399 12.3536 15.1582 12.3536 15.9498C12.3536 16.7414 12.6681 17.5006 13.2278 18.0604C13.7876 18.6201 14.5468 18.9346 15.3384 18.9346Z" stroke="#36454F" stroke-width="1.79808" stroke-linecap="round" stroke-linejoin="round"/>
</svg>
