<svg width="48" height="47" viewBox="0 0 48 47" fill="none" xmlns="http://www.w3.org/2000/svg">
<path d="M11.7607 40.9872C10.8633 40.9872 10.1147 40.6872 9.51474 40.0872C8.91478 39.4873 8.61415 38.7386 8.61285 37.8413V12.9664C8.61285 12.0703 8.91348 11.3223 9.51474 10.7224C10.116 10.1224 10.8646 9.82178 11.7607 9.82049H15.2066V6.52461C15.2066 6.22203 15.3059 5.9714 15.5046 5.77271C15.7033 5.57403 15.9533 5.47468 16.2545 5.47468C16.5558 5.47468 16.8064 5.57403 17.0064 5.77271C17.2064 5.9714 17.3058 6.22203 17.3045 6.52461V9.82049H31.2399V6.45059C31.2399 6.17269 31.3327 5.94024 31.5184 5.75324C31.7041 5.56624 31.9359 5.47339 32.2138 5.47468C32.4917 5.47598 32.7229 5.56883 32.9073 5.75324C33.0917 5.93764 33.1852 6.16944 33.1878 6.44864V9.82049H36.6336C37.5297 9.82049 38.2783 10.1211 38.8796 10.7224C39.4808 11.3236 39.7808 12.0723 39.7795 12.9683V37.8413C39.7795 38.7373 39.4795 39.486 38.8796 40.0872C38.2796 40.6885 37.5303 40.9884 36.6317 40.9872H11.7607ZM11.7607 39.0392H36.6336C36.9323 39.0392 37.207 38.9146 37.4576 38.6652C37.7082 38.4159 37.8329 38.1406 37.8316 37.8393V20.76H10.5608V37.8413C10.5608 38.1399 10.6854 38.4146 10.9348 38.6652C11.1841 38.9159 11.4588 39.0405 11.7587 39.0392M10.5608 18.8101H37.8316V12.9664C37.8316 12.6677 37.7069 12.393 37.4576 12.1424C37.2083 11.8918 36.933 11.7671 36.6317 11.7684H11.7607C11.4607 11.7684 11.1854 11.8931 10.9348 12.1424C10.6841 12.3917 10.5595 12.667 10.5608 12.9683V18.8101ZM16.4045 26.3778C16.1279 26.3778 15.8961 26.2849 15.7091 26.0992C15.5221 25.9135 15.4293 25.6817 15.4306 25.4038C15.4319 25.1259 15.5247 24.8941 15.7091 24.7084C15.8935 24.5227 16.1253 24.4299 16.4045 24.4299H31.9879C32.2658 24.4299 32.4976 24.5227 32.6833 24.7084C32.869 24.8941 32.9618 25.1259 32.9618 25.4038C32.9618 25.6817 32.869 25.9135 32.6833 26.0992C32.4976 26.2849 32.2658 26.3778 31.9879 26.3778H16.4045ZM16.4045 34.1694C16.1279 34.1694 15.8961 34.0766 15.7091 33.8909C15.5221 33.7052 15.4293 33.4734 15.4306 33.1955C15.4319 32.9176 15.5247 32.6858 15.7091 32.5001C15.8935 32.3144 16.1253 32.2215 16.4045 32.2215H26.1441C26.422 32.2215 26.6538 32.3144 26.8395 32.5001C27.0252 32.6858 27.1181 32.9176 27.1181 33.1955C27.1181 33.4734 27.0252 33.7052 26.8395 33.8909C26.6538 34.0766 26.422 34.1694 26.1441 34.1694H16.4045Z" fill="#36454F"/>
</svg>
