<svg width="56" height="56" viewBox="0 0 56 56" fill="none" xmlns="http://www.w3.org/2000/svg">
<path d="M18.044 49.208H37.5335C39.6831 49.208 41.7447 48.354 43.2647 46.834C44.7847 45.314 45.6387 43.2524 45.6387 41.1028V28.2966C45.6394 26.1472 44.7864 24.0856 43.2673 22.5651L29.4445 8.73993C28.6918 7.98732 27.7982 7.39033 26.8148 6.98305C25.8314 6.57578 24.7774 6.3662 23.713 6.36627H18.044C15.8943 6.36627 13.8328 7.22021 12.3127 8.74023C10.7927 10.2602 9.93878 12.3218 9.93878 14.4715V41.1028C9.93878 43.2524 10.7927 45.314 12.3127 46.834C13.8328 48.354 15.8943 49.208 18.044 49.208Z" stroke="#36454F" stroke-width="2.04332" stroke-linecap="round" stroke-linejoin="round"/>
<path d="M27.0682 7.19733V20.3046C27.0682 21.5329 27.5561 22.711 28.4247 23.5796C29.2933 24.4481 30.4714 24.9361 31.6997 24.9361H44.8116" stroke="#36454F" stroke-width="2.04332" stroke-linecap="round" stroke-linejoin="round"/>
<path d="M16.7892 38.2074V35.8916M16.7892 35.8916V31.2601H19.105C19.7192 31.2601 20.3082 31.5041 20.7425 31.9383C21.1768 32.3726 21.4208 32.9617 21.4208 33.5758C21.4208 34.19 21.1768 34.779 20.7425 35.2133C20.3082 35.6476 19.7192 35.8916 19.105 35.8916H16.7892ZM35.3154 38.2074V35.3127M35.3154 35.3127V31.2601H38.789M35.3154 35.3127H38.789M26.0523 38.2074V31.2601H27.2102C28.1315 31.2601 29.015 31.626 29.6664 32.2775C30.3179 32.9289 30.6839 33.8125 30.6839 34.7337C30.6839 35.655 30.3179 36.5385 29.6664 37.19C29.015 37.8414 28.1315 38.2074 27.2102 38.2074H26.0523Z" stroke="#36454F" stroke-width="2.31577" stroke-linecap="round" stroke-linejoin="round"/>
</svg>
