<svg width="39" height="38" viewBox="0 0 39 38" fill="none" xmlns="http://www.w3.org/2000/svg">
<path d="M3.53436 31.4081C3.69799 33.418 5.2359 34.9559 7.24582 35.1196C9.78515 35.3257 13.8372 35.5436 19.6302 35.5436C25.4231 35.5436 29.4752 35.3257 32.0146 35.1196C34.0245 34.9559 35.5624 33.418 35.726 31.4081C35.9321 28.8688 36.15 24.8167 36.15 19.0237C36.15 13.2308 35.9321 9.17871 35.726 6.63937C35.5624 4.62946 34.0245 3.09154 32.0146 2.92792C29.4752 2.72181 25.4231 2.50391 19.6302 2.50391C13.8372 2.50391 9.78515 2.72181 7.24582 2.92792C5.2359 3.09154 3.69799 4.62946 3.53436 6.63937C3.32826 9.17871 3.11035 13.2308 3.11035 19.0237C3.11035 24.8167 3.32826 28.8688 3.53436 31.4081Z" stroke="#36454F" stroke-width="2.2476" stroke-linejoin="round"/>
<path d="M3.50293 10.7637H35.7559" stroke="#36454F" stroke-width="2.06779" stroke-linecap="round"/>
<path d="M8.61621 6.83008H10.1895M14.9095 6.83008H16.4828" stroke="#36454F" stroke-width="2.06779" stroke-linecap="round" stroke-linejoin="round"/>
<rect x="7.04297" y="14.5273" width="7.19231" height="7.19231" rx="1.79808" stroke="#36454F" stroke-width="0.899038"/>
<rect x="17.832" y="14.5273" width="13.4856" height="7.19231" rx="1.79808" stroke="#36454F" stroke-width="0.899038"/>
</svg>
