<svg width="37" height="35" viewBox="0 0 37 35" fill="none" xmlns="http://www.w3.org/2000/svg">
<path d="M29.7174 27.8834C31.5167 26.8247 33.0085 25.3148 34.0455 23.5029C35.0826 21.691 35.6288 19.6399 35.6303 17.5522C35.6288 15.4646 35.0826 13.4134 34.0455 11.6015C33.0085 9.78966 31.5167 8.27976 29.7174 7.22107M19.0511 1.88303C18.8109 1.78363 18.5466 1.75773 18.2916 1.80861C18.0367 1.85948 17.8026 1.98484 17.6189 2.16882L10.1193 9.66835H2.78078C2.43229 9.66835 2.09807 9.80679 1.85165 10.0532C1.60523 10.2996 1.4668 10.6338 1.4668 10.9823V24.1221C1.4668 24.4706 1.60523 24.8048 1.85165 25.0513C2.09807 25.2977 2.43229 25.4361 2.78078 25.4361H10.1193L17.6189 32.9356C17.8027 33.1196 18.0369 33.2449 18.2919 33.2957C18.5469 33.3465 18.8113 33.3205 19.0515 33.2209C19.2917 33.1214 19.497 32.9528 19.6414 32.7365C19.7858 32.5203 19.8627 32.266 19.8625 32.006V3.09846C19.8628 2.8383 19.7858 2.58391 19.6414 2.36754C19.4969 2.15116 19.2915 1.98254 19.0511 1.88303Z" stroke="#36454F" stroke-width="2.06779" stroke-linecap="round"/>
</svg>
