<svg width="18" height="18" viewBox="0 0 18 18" fill="none" xmlns="http://www.w3.org/2000/svg">
<mask id="mask0_1594_613" style="mask-type:luminance" maskUnits="userSpaceOnUse" x="0" y="0" width="18" height="18">
<path d="M17.8117 0.218201H0.596924V17.3995H17.8117V0.218201Z" fill="white"/>
</mask>
<g mask="url(#mask0_1594_613)">
<path fill-rule="evenodd" clip-rule="evenodd" d="M9.03864 0.225081L12.4948 0.221653C15.9044 0.218228 15.9543 0.221627 16.1858 0.28875C16.3139 0.32916 16.5249 0.412716 16.6557 0.479838C16.8139 0.56066 16.9783 0.688055 17.1626 0.8723C17.3776 1.08394 17.4646 1.20176 17.5756 1.42642C17.6523 1.58395 17.7365 1.81548 17.7633 1.9463C17.8037 2.1374 17.8139 2.56409 17.8139 4.26203C17.8139 5.95996 17.8037 6.38599 17.7633 6.57708C17.7365 6.70448 17.6523 6.93942 17.5756 7.09763C17.4646 7.32229 17.3742 7.4394 17.1626 7.65447C16.9482 7.86611 16.8304 7.9565 16.6057 8.06746C16.4482 8.14417 16.2133 8.22845 16.0852 8.25516C15.8907 8.29557 15.3537 8.30516 9.86056 8.30516L8.85374 8.80857C8.13251 9.17158 7.8133 9.31198 7.72974 9.31198C7.66604 9.31198 7.5517 9.28183 7.47841 9.24484C7.38869 9.20032 7.32156 9.13324 7.27704 9.04351C7.20992 8.91269 7.2099 8.84211 7.2099 5.54351C7.2099 2.72161 7.21949 2.14425 7.2599 1.9463C7.28661 1.81548 7.37085 1.58395 7.44756 1.42642C7.55852 1.20176 7.64552 1.08394 7.86059 0.8723C8.03182 0.701068 8.21262 0.560666 8.35029 0.486694C8.47152 0.422996 8.67292 0.338759 8.80374 0.299033L9.03864 0.225081ZM9.50852 2.85246C9.43455 2.89629 9.34686 2.98327 9.31672 3.04355C9.28659 3.10382 9.25987 3.20449 9.25644 3.26545C9.25644 3.32572 9.28659 3.42984 9.32015 3.50039C9.35714 3.57025 9.43798 3.65792 9.51195 3.69833L9.64276 3.77505C15.2968 3.77505 15.3674 3.77503 15.4982 3.70791C15.5879 3.66339 15.6551 3.59626 15.6996 3.50653C15.7366 3.43325 15.7667 3.32917 15.7667 3.27163C15.7667 3.21821 15.7366 3.11066 15.6996 3.03669C15.6551 2.94765 15.5879 2.88052 15.4982 2.83532C15.3674 2.77162 15.2968 2.76889 12.5016 2.76889H9.64276L9.50852 2.85246ZM9.50852 4.8661C9.43455 4.91268 9.34686 5.00039 9.31672 5.06066C9.28659 5.12094 9.25987 5.21819 9.25644 5.27846C9.25644 5.33874 9.28659 5.44624 9.32015 5.51336C9.35714 5.58734 9.43798 5.6709 9.51195 5.71474L9.64276 5.78873C15.2968 5.79216 15.3674 5.78872 15.4982 5.72502C15.5879 5.6805 15.6551 5.61337 15.6996 5.52365C15.7366 5.44968 15.7667 5.34213 15.7667 5.28871C15.7667 5.23186 15.7366 5.12778 15.6996 5.05381C15.6551 4.96408 15.5879 4.89695 15.4982 4.85243C15.3674 4.78531 15.2968 4.7853 12.5016 4.7853H9.64276L9.50852 4.8661ZM6.18251 6.30514L6.20308 7.73528C6.21952 9.13801 6.21949 9.16473 6.30032 9.34555C6.34073 9.44966 6.41744 9.59076 6.47155 9.66473C6.52155 9.7387 6.63594 9.8661 6.72635 9.94281C6.81676 10.0236 6.95785 10.1209 7.0421 10.1613C7.12566 10.1983 7.26673 10.2517 7.36056 10.275C7.45097 10.299 7.59551 10.3188 7.67907 10.3188C7.76332 10.3188 7.92086 10.3024 8.03182 10.2784C8.16949 10.2517 8.53182 10.0907 10.0955 9.31198L15.6824 9.32912L15.7229 9.59759C15.7496 9.77841 15.7632 10.5003 15.7632 11.8291C15.7667 13.4263 15.7564 13.8558 15.716 14.1277C15.6859 14.312 15.6187 14.5976 15.5653 14.7585C15.5084 14.9195 15.4174 15.1441 15.3605 15.2619C15.3003 15.3756 15.1763 15.5839 15.0852 15.7215C14.9913 15.8626 14.7865 16.1044 14.629 16.2619C14.468 16.4229 14.2194 16.6311 14.0722 16.7318C13.9242 16.8291 13.6824 16.9667 13.5352 17.0373C13.3872 17.1044 13.129 17.1982 12.9646 17.2421C12.7968 17.2886 12.5921 17.3421 12.5016 17.3626C12.3907 17.3893 11.4208 17.3996 9.22292 17.3996C7.02499 17.3996 6.05512 17.3893 5.94142 17.3626C5.85375 17.3421 5.64554 17.2886 5.48116 17.2421C5.31335 17.1982 5.05854 17.1044 4.91128 17.0373C4.76333 16.9667 4.52156 16.8291 4.3743 16.7284C4.22635 16.6311 3.97501 16.4194 3.81679 16.2619C3.65926 16.1044 3.45103 15.8626 3.36062 15.7215C3.26678 15.5839 3.14557 15.3756 3.08529 15.2619C3.02845 15.1441 2.93803 14.9195 2.88049 14.7585C2.82707 14.5976 2.75993 14.3222 2.73322 14.1441C2.68938 13.8825 2.67912 13.4702 2.67912 11.8455C2.67912 10.2215 2.68938 9.80857 2.73322 9.54692C2.75993 9.37227 2.82707 9.09762 2.88049 8.93666C2.93803 8.77502 3.02845 8.54691 3.08529 8.43321C3.14557 8.3154 3.26678 8.11063 3.36062 7.97022C3.45445 7.83255 3.65926 7.59077 3.81679 7.42981C3.97501 7.2716 4.21953 7.06749 4.3572 6.97297C4.49487 6.88256 4.70306 6.75859 4.81676 6.70174C4.93456 6.64079 5.15925 6.55037 5.32021 6.49694C5.48459 6.43941 5.74347 6.37571 5.901 6.349L6.18251 6.30514ZM6.25989 10.5976C6.21263 10.688 6.20308 10.8085 6.20308 11.3188C6.19965 11.8558 6.2099 11.9496 6.26332 12.0572C6.30031 12.1311 6.38386 12.2147 6.45784 12.2585C6.52838 12.2989 6.63593 12.3325 6.69621 12.3359C6.75648 12.3359 6.86403 12.3058 6.938 12.2688C7.02704 12.2236 7.09413 12.1565 7.13933 12.0674C7.19961 11.9462 7.20647 11.8661 7.20647 11.3291C7.20647 10.7921 7.19961 10.7079 7.13933 10.5907C7.09413 10.501 7.02704 10.4339 6.938 10.3894C6.86403 10.3524 6.75648 10.3222 6.69621 10.3222C6.63593 10.3222 6.52499 10.3592 6.45102 10.4031C6.37773 10.4497 6.29345 10.5373 6.25989 10.5976ZM11.2934 10.5976C11.2468 10.688 11.2366 10.8085 11.2366 11.3188C11.2332 11.8558 11.2434 11.9496 11.2968 12.0572C11.3338 12.1311 11.4174 12.2147 11.4914 12.2585C11.5619 12.2989 11.6695 12.3325 11.7297 12.3359C11.79 12.3359 11.8976 12.3058 11.9715 12.2688C12.0606 12.2236 12.1276 12.1565 12.1729 12.0674C12.2331 11.9462 12.24 11.8661 12.24 11.3291C12.24 10.7921 12.2331 10.7079 12.1729 10.5907C12.1276 10.501 12.0606 10.4339 11.9715 10.3894C11.8976 10.3524 11.79 10.3222 11.7297 10.3222C11.6695 10.3222 11.5585 10.3592 11.4845 10.4031C11.4113 10.4497 11.327 10.5373 11.2934 10.5976ZM7.96125 13.4229C7.88728 13.4702 7.80373 13.5572 7.77016 13.6174C7.74003 13.6777 7.71264 13.7784 7.71264 13.8359C7.7099 13.8962 7.74003 14.0037 7.77359 14.0709C7.81058 14.1441 7.89414 14.2284 7.96811 14.2722C8.09208 14.3455 8.12221 14.3455 9.2133 14.3489C10.2633 14.3489 10.3373 14.3455 10.4613 14.2818C10.551 14.2373 10.6181 14.1701 10.6626 14.0804C10.6996 14.0071 10.7297 13.8996 10.7297 13.8455C10.7297 13.7887 10.6996 13.6846 10.6626 13.6106C10.6181 13.5215 10.551 13.4544 10.4613 13.4092C10.3373 13.3455 10.2599 13.3421 9.2133 13.3421H8.09553L7.96125 13.4229ZM1.6894 9.38255C1.70652 9.38255 1.71613 9.4058 1.70654 9.43936C1.69626 9.47292 1.68254 10.4634 1.67911 11.6442C1.67295 12.8257 1.67913 13.903 1.69283 14.0373C1.70995 14.1715 1.70995 14.2784 1.69625 14.2784C1.68256 14.2784 1.58528 14.2387 1.48117 14.188C1.37432 14.138 1.21955 14.0339 1.13599 13.9599C1.05174 13.8825 0.934627 13.7483 0.877093 13.6579C0.81682 13.5675 0.740085 13.3928 0.699675 13.2722C0.632552 13.0674 0.62915 12.9832 0.62915 11.8455C0.62915 10.9633 0.642844 10.5942 0.675721 10.4702C0.699693 10.3791 0.753119 10.2284 0.796954 10.1346C0.840789 10.0435 0.968154 9.87567 1.08185 9.7654C1.19281 9.65444 1.36748 9.52361 1.46817 9.47293C1.57228 9.42293 1.66953 9.38255 1.6894 9.38255ZM16.7331 9.37912C16.753 9.37912 16.8571 9.42293 16.9612 9.47293C17.0653 9.52361 17.2194 9.62775 17.3071 9.70173C17.3906 9.77844 17.5085 9.91267 17.5653 10.0038C17.6222 10.0942 17.703 10.2688 17.7434 10.3859C17.8071 10.5942 17.8139 10.6777 17.8105 11.812C17.8105 12.7017 17.8002 13.0674 17.7667 13.188C17.7434 13.2818 17.6694 13.4531 17.6091 13.5709C17.5454 13.6914 17.4173 13.8558 17.3235 13.94C17.2297 14.027 17.0653 14.138 16.9612 14.188C16.8571 14.2387 16.7598 14.2784 16.7468 14.2784C16.7331 14.2784 16.7331 14.1715 16.7468 14.0373C16.7633 13.903 16.7701 12.8257 16.7632 11.6442C16.7564 10.4634 16.7399 9.47292 16.7228 9.43936C16.703 9.39964 16.7064 9.37912 16.7331 9.37912ZM2.149 3.27502C2.23667 3.27502 2.38734 3.28873 2.4846 3.31202C2.58186 3.33257 2.7435 3.38599 2.8435 3.43325C2.95103 3.48325 3.11543 3.60381 3.23324 3.72505C3.34694 3.83874 3.47157 4.00654 3.52157 4.11065C3.56883 4.21476 3.6257 4.37571 3.64556 4.47297C3.66611 4.57023 3.68251 4.72159 3.68251 4.80858C3.68251 4.89625 3.66266 5.04352 3.63937 5.13461C3.6154 5.22845 3.55855 5.37913 3.51471 5.47022C3.46814 5.56406 3.34077 5.73188 3.22981 5.84216C3.11885 5.95312 2.95102 6.08051 2.67636 6.20791V7.18116L2.49489 7.44967C2.39763 7.59761 2.2565 7.83596 2.18595 7.97979C2.06541 8.21815 2.04488 8.23801 1.92091 8.26883C1.84694 8.28869 1.75996 8.31198 1.72982 8.32226C1.67297 8.3387 1.66954 8.27501 1.66954 6.20791L1.4476 6.09077C1.31335 6.02365 1.15926 5.90584 1.06885 5.80516C0.984605 5.71133 0.87706 5.56063 0.833909 5.47022C0.790074 5.37913 0.73322 5.22845 0.709248 5.13461C0.682536 5.04352 0.662678 4.89625 0.662678 4.80858C0.662678 4.72159 0.679127 4.57023 0.699675 4.47297C0.722962 4.37571 0.776407 4.21476 0.823667 4.11065C0.874352 4.00312 0.994874 3.84217 1.11542 3.72505C1.22638 3.61409 1.39419 3.4867 1.4846 3.44287C1.57843 3.39972 1.72979 3.34216 1.8202 3.3223C1.91404 3.29901 2.06201 3.27844 2.149 3.27502Z" fill="white"/>
</g>
</svg>
