<svg width="32" height="32" viewBox="0 0 796 744" fill="none" xmlns="http://www.w3.org/2000/svg">
<path d="M37.9963 445.622C43.1605 445.483 49.3016 446.447 52.6526 447.842C56.0041 449.099 61.1718 452.047 64.244 454.561C67.3157 456.936 71.3742 462.106 76.8178 472.714L78.2127 609.552L84.2049 622.126C88.9522 632.039 92.3067 636.656 99.7059 643.776C105.152 649.083 112.708 654.659 118.154 657.313C123.041 659.686 128.347 662.198 129.883 662.617C131.42 663.176 134.912 664.294 137.565 665.132C140.519 665.969 172.626 666.813 215.758 667.372L216.681 667.391C288.091 668.218 289.238 668.224 294.658 671.281C297.728 672.956 301.916 675.892 303.872 677.568C305.826 679.383 309.184 683.567 311.279 687.057C314.631 692.364 315.326 694.889 315.326 703.128C315.465 710.387 314.631 714.303 312.536 718.492C310.998 721.564 306.948 726.581 303.46 729.651C299.55 733.281 294.247 736.229 288.941 737.765C281.261 740.139 275.391 740.269 207.388 739.71C147.482 739.151 132.393 738.735 124.991 736.92C119.968 735.664 112.713 733.853 108.94 732.736C105.03 731.618 98.4533 729.382 94.2639 727.706C90.0738 726.03 81.8351 721.976 76.1105 718.904C70.3856 715.832 61.8776 710.238 57.2695 706.468C52.6617 702.838 44.6937 695.586 39.6663 690.279C34.6399 685.114 28.6423 678.264 26.2674 675.191C23.8941 672.12 18.8586 663.61 15.0885 656.35C11.1784 649.088 7.82567 641.815 7.40673 640.279C6.98627 638.738 5.1738 632.451 3.35955 626.31C0.00990089 615.145 5.5425e-09 614.854 0 542.538C0 473.14 0.139339 469.769 2.65228 465.72C4.1884 463.486 7.27243 459.432 9.64643 456.918C12.02 454.267 15.7848 451.199 17.8783 450.081C19.973 448.825 23.4654 447.42 25.5601 446.722C27.6552 446.163 33.2487 445.622 37.9963 445.622Z" fill="url(#paint0_linear_28_10)"/>
<path fill-rule="evenodd" clip-rule="evenodd" d="M268.41 252.909C282.933 252.909 296.902 253.466 300.532 254.304C304.304 255.143 310.727 256.803 314.914 257.919C319.102 259.036 325.934 261.566 329.845 263.381C333.888 265.193 337.8 266.716 338.647 266.721C339.483 266.721 340.04 267.144 340.041 267.841C340.041 268.399 342.278 270.077 345.208 271.613C348.001 273.149 354.853 278.88 360.159 284.186C365.601 289.628 371.175 296.187 372.576 298.843C373.973 301.496 375.652 304.72 376.211 305.837C376.91 306.958 378.455 310.162 379.57 312.811C380.687 315.465 382.23 319.655 383.067 321.888C383.906 324.127 385.564 331.111 386.82 337.252C388.076 344.095 388.922 355.686 388.922 366.996C388.922 378.163 388.078 389.745 386.682 396.309C385.565 402.174 383.615 409.871 382.498 413.362C381.38 416.852 378.734 423.125 376.78 427.311C374.687 431.497 372.316 435.836 371.476 436.958C370.778 437.935 366.012 443.242 360.985 448.549C355.957 453.855 348.281 460.551 343.814 463.343C339.361 466.265 335.745 469.193 335.857 469.905C335.857 470.603 346.195 481.638 358.902 494.345C371.61 507.053 381.947 518.24 381.947 519.217C381.904 520.467 373.065 520.887 342.419 520.887C306.698 521.027 302.771 520.74 300.257 518.51C298.721 517.114 290.755 508.453 282.517 499.237C268.273 483.178 267.43 482.476 260.866 481.359C257.235 480.8 251.506 480.376 248.155 480.376C244.942 480.375 238.384 479.41 233.499 478.294C228.752 477.037 222.328 475.36 219.255 474.522C216.184 473.684 210.183 471.311 205.993 469.217C201.805 467.123 195.517 463.77 192.025 461.535C188.534 459.441 181.957 453.71 177.349 448.962C171.766 443.237 167.014 436.386 163.105 428.569C159.898 422.154 156.56 414.627 155.718 411.967C154.88 409.315 153.201 402.328 152.083 396.604C150.966 390.599 150.119 377.876 150.119 366.564C150.119 354.279 150.962 343.106 152.359 336.544C153.475 330.825 155.426 323.434 156.543 320.218C157.66 316.868 159.897 311.275 161.573 307.644C163.248 303.875 167.165 297.453 170.237 293.263C173.309 289.074 176.799 284.599 178.056 283.342C179.175 282.084 183.363 278.731 187.133 275.66C191.043 272.727 198.028 268.405 202.496 266.171C207.105 263.936 212.139 261.562 213.675 261.004C215.218 260.443 219.963 258.897 224.147 257.782C228.336 256.665 234.338 255.139 237.408 254.442C240.481 253.744 254.446 253.049 268.41 252.909ZM268.823 304.56C264.634 304.7 257.917 305.682 254.147 306.8C250.238 308.057 244.664 310.718 241.593 312.811C238.521 314.906 234.048 319.65 231.534 323.421C229.02 327.191 226.091 334.039 224.834 338.647C223.439 344.233 222.732 353.309 222.732 366.152C222.732 379.695 223.434 388.214 225.109 394.777C226.506 400.082 229.434 407.061 231.946 410.553C234.32 414.044 238.658 418.517 241.73 420.612C244.665 422.706 250.667 425.35 254.854 426.466C259.043 427.723 265.6 428.706 269.511 428.706C273.281 428.706 279.569 427.876 283.479 426.899C287.249 425.921 292.692 423.68 295.346 422.144C297.999 420.608 302.339 416.845 304.992 413.912C307.644 410.841 310.711 406.232 311.829 403.578C312.946 400.925 314.761 394.209 315.739 388.902C316.855 383.454 317.684 372.846 317.684 365.169C317.544 357.492 316.716 347.442 315.739 342.831C314.622 338.223 312.811 332.07 311.554 329.138C310.297 326.345 307.211 321.734 304.697 318.941C302.322 316.149 297.997 312.519 295.346 310.984C292.691 309.448 287.248 307.207 283.479 306.23C279.571 305.253 273.012 304.561 268.823 304.56Z" fill="url(#paint1_linear_28_10)"/>
<path d="M213.95 0C257.422 3.73235e-05 281.562 0.560108 282.084 1.3949C282.503 2.23149 284.183 2.78808 285.856 2.7898C287.671 2.7898 291.587 4.04648 294.658 5.44208C297.729 6.69849 301.914 9.3615 304.01 11.3164C305.965 13.1316 309.324 18.0135 311.279 22.063C313.932 27.3687 314.913 31.5588 314.914 37.7016C314.914 42.301 314.354 46.3461 313.519 46.7783C312.681 47.1972 312.124 48.7393 312.124 50.2754C312.123 51.8058 311.562 53.0577 310.729 53.0652C309.894 53.0652 309.337 53.8989 309.334 54.8727C309.334 55.7105 307.368 58.373 304.855 60.747C302.341 62.981 297.73 66.1833 294.658 67.859C289.212 70.7915 287.54 70.9371 226.937 71.3561C192.723 71.4957 159.064 72.1903 152.221 72.8885C145.379 73.4471 136.444 74.9934 132.673 76.1105C128.763 77.3673 122.475 79.8747 118.704 81.6901C114.794 83.6454 107.949 88.5444 103.341 92.5939C98.735 96.7818 92.5975 103.475 89.8041 107.663C86.8715 111.852 83.0908 118.699 81.4151 122.889C78.3745 130.214 78.3577 132.621 77.5447 196.327L77.5054 198.292C77.0871 235.518 76.1209 267.463 75.4229 269.511C74.8643 271.466 72.8943 275.246 71.2185 277.9C69.5443 280.549 66.8981 283.753 65.5014 285.012C63.9658 286.408 60.3412 288.798 57.2695 290.473C53.4999 292.707 48.4671 293.824 41.906 294.383C36.6043 294.662 29.4852 294.237 26.1298 293.401C22.9179 292.563 17.5952 289.765 14.2437 287.251C11.0321 284.736 6.42005 279.848 0 270.218V198.292C3.46009e-05 142.861 0.430922 124.988 1.82712 120.099C2.80414 116.61 4.61755 110.748 5.8743 106.838C6.99148 103.067 8.94183 97.6048 10.059 94.9515C11.3166 92.2962 13.6851 86.9921 15.6386 83.085C17.5939 79.3143 22.6261 71.2134 26.955 65.0692C31.2839 59.0652 39.3899 49.9999 44.6958 44.8333C50.0024 39.806 58.9374 32.6683 64.244 29.0375C69.5499 25.5471 77.093 21.0905 81.0025 19.1357C84.7729 17.1806 90.2157 14.7933 92.869 13.5364C95.5225 12.4192 100.557 10.6063 104.048 9.48926C107.539 8.23282 112.844 6.69411 115.914 5.71713C118.987 4.87954 126.801 3.49003 133.36 2.65228C139.924 1.81439 145.517 0.829396 145.797 0.550102C146.226 0.271503 176.896 0 213.95 0Z" fill="url(#paint2_linear_28_10)"/>
<path d="M753.83 445.622C757.461 445.623 763.733 446.471 767.779 447.586C772.527 448.983 777.417 451.771 781.885 455.681C785.796 459.172 789.997 464.618 795.304 476.349V540.868C795.304 592.52 794.877 607.746 793.202 616.684C792.085 622.827 789.575 632.469 787.76 638.334C785.805 644.059 782.448 652.158 780.353 656.488C778.119 660.676 774.071 667.657 771.139 672.126C768.346 676.595 760.802 685.541 754.518 692.244C748.095 698.807 738.877 707.177 733.85 710.948C728.823 714.578 719.182 720.443 712.199 723.934C705.357 727.285 695.864 731.475 691.256 733.011C686.65 734.546 678.837 736.783 673.81 738.04C668.783 739.157 658.579 740.839 651.177 741.537C643.63 742.375 609.839 743.07 576.049 743.07C535.56 743.07 512.1 742.516 507.345 741.4C503.296 740.562 497.143 738.035 493.652 735.8C490.161 733.564 485.417 728.68 482.905 725.191C480.392 721.56 477.596 715.56 476.618 711.93C475.082 706.484 475.22 704.106 476.756 697.961C477.872 693.917 479.684 689.035 480.941 687.215C482.197 685.26 484.722 682.04 486.677 679.945C488.635 677.99 493.674 674.495 505.538 668.354L578.839 667.529C633.72 666.97 653.838 666.273 658.447 664.877C661.937 663.899 665.291 662.49 666.128 661.792C666.827 661.098 668.353 660.537 669.606 660.535C670.723 660.535 675.757 657.737 680.785 654.385C685.81 651.174 692.657 645.326 696.148 641.556C699.638 637.648 704.38 630.938 706.895 626.33C709.268 621.723 712.199 613.064 713.457 606.919C715.412 597.563 715.696 585.406 715.696 474.247L719.606 466.565C721.701 462.376 725.618 457.205 728.27 455.111C730.926 452.877 736.369 449.807 740.137 448.412C744.047 446.876 750.2 445.622 753.83 445.622Z" fill="url(#paint3_linear_28_10)"/>
<path fill-rule="evenodd" clip-rule="evenodd" d="M502.729 255.562C560.534 255.562 576.742 255.989 585.401 257.664C591.404 258.781 600.622 261.848 606.069 264.501C611.375 267.294 618.919 272.461 622.69 276.092C626.321 279.863 631.202 286.015 633.437 289.786C635.671 293.696 638.465 300.254 639.861 304.442C641.257 309.19 642.238 317.017 642.238 324.698C642.238 331.678 641.545 339.78 640.568 342.851C639.451 345.924 637.215 351.638 635.401 355.405C633.446 359.315 628.704 365.892 624.655 370.081C620.465 374.41 613.467 379.574 608.859 381.947C604.294 384.161 600.415 386.236 600.077 386.407C599.937 386.686 601.885 390.737 604.537 395.621C607.05 400.369 612.491 410.574 616.541 418.254C620.59 425.934 625.624 435.426 627.719 439.197C629.814 443.107 635.41 453.445 640.018 462.243C644.765 471.038 648.099 478.855 647.68 479.414C647.21 479.971 628.888 480.396 567.68 480.396L564.045 472.439C562.09 467.971 553.15 449.533 527.876 398.706H502.729L501.334 479.689H430.115L429.703 369.374C429.563 308.767 429.696 258.347 430.115 257.369C430.585 255.978 446.55 255.562 502.729 255.562ZM540.607 306.151C519.244 305.732 514.211 306.01 513.652 307.546C513.235 308.692 513.1 318.037 513.239 328.352L513.514 347.055C559.598 347.055 564.632 346.633 568.682 344.678C571.332 343.281 574.962 339.945 576.639 337.016C578.454 333.944 579.721 329.324 579.861 326.112C579.86 322.9 578.587 318.568 577.051 315.916C575.514 313.542 572.582 310.336 570.489 308.941C567.277 306.988 562.524 306.43 540.607 306.151Z" fill="url(#paint4_linear_28_10)"/>
<path d="M574.654 0.157172C607.331 0.157181 640.852 0.716317 649.37 1.41455C657.887 2.25256 668.784 3.77298 673.81 5.0295C678.836 6.28624 686.649 8.52346 691.256 10.059C695.863 11.5946 705.357 15.7847 712.199 19.1357C719.041 22.6261 728.821 28.3515 733.85 32.122C738.876 35.892 747.402 43.5698 752.848 49.1555C758.294 54.7414 765.548 63.1328 768.899 67.7411C772.11 72.3484 777.285 80.857 780.078 86.5821C783.009 92.3041 786.635 101.101 788.172 106.13C789.708 111.157 792.084 120.241 793.202 126.386C794.878 135.323 795.304 150.412 795.304 202.221C795.304 263.802 795.148 267.023 792.495 273.027C790.956 276.518 787.621 281.689 784.97 284.619C782.457 287.41 777.146 291.307 773.516 293.263C768.954 295.498 763.634 296.8 757.583 297.173C750.884 297.591 746.548 297.029 740.824 294.796C736.637 293.259 730.922 290.191 728.27 287.959C725.617 285.864 721.701 280.553 715.696 268.823V206.681C715.696 156.691 715.27 142.864 713.594 135.463C712.476 130.435 709.545 122.335 707.032 117.309C704.239 111.445 699.359 105.019 693.496 99.1558C688.05 93.8493 680.223 87.9844 674.498 84.9121C669.194 82.1211 661.939 79.0542 658.447 78.0752C653.978 76.8183 631.346 76.119 578.839 75.5604C506.506 74.7226 505.38 74.7229 498.956 71.6508C495.186 69.8343 490.021 66.0533 487.09 63.2617C484.298 60.3284 480.941 55.4477 479.546 52.3775C478.15 49.3068 476.765 44.5595 476.206 41.906C475.647 38.9734 476.067 33.9406 477.463 29.3322C478.86 24.3067 481.649 19.4203 485.557 14.8135C488.909 11.043 494.077 6.70315 497.149 5.16703C500.22 3.77145 505.525 1.97399 509.015 1.41455C512.507 0.855959 541.977 0.296819 574.654 0.157172Z" fill="url(#paint5_linear_28_10)"/>
<defs>
<linearGradient id="paint0_linear_28_10" x1="758.299" y1="281.75" x2="267.564" y2="370.771" gradientUnits="userSpaceOnUse">
<stop stop-color="#8073E0"/>
<stop offset="1" stop-color="#AF47AF"/>
</linearGradient>
<linearGradient id="paint1_linear_28_10" x1="758.299" y1="281.75" x2="267.564" y2="370.771" gradientUnits="userSpaceOnUse">
<stop stop-color="#8073E0"/>
<stop offset="1" stop-color="#AF47AF"/>
</linearGradient>
<linearGradient id="paint2_linear_28_10" x1="758.299" y1="281.75" x2="267.564" y2="370.771" gradientUnits="userSpaceOnUse">
<stop stop-color="#8073E0"/>
<stop offset="1" stop-color="#AF47AF"/>
</linearGradient>
<linearGradient id="paint3_linear_28_10" x1="758.299" y1="281.75" x2="267.564" y2="370.771" gradientUnits="userSpaceOnUse">
<stop stop-color="#8073E0"/>
<stop offset="1" stop-color="#AF47AF"/>
</linearGradient>
<linearGradient id="paint4_linear_28_10" x1="758.299" y1="281.75" x2="267.564" y2="370.771" gradientUnits="userSpaceOnUse">
<stop stop-color="#8073E0"/>
<stop offset="1" stop-color="#AF47AF"/>
</linearGradient>
<linearGradient id="paint5_linear_28_10" x1="758.299" y1="281.75" x2="267.564" y2="370.771" gradientUnits="userSpaceOnUse">
<stop stop-color="#8073E0"/>
<stop offset="1" stop-color="#AF47AF"/>
</linearGradient>
</defs>
</svg>